<?xml version="1.0" encoding="UTF-8"?>
<svg width="28px" height="32px" viewBox="0 0 28 32" version="1.1" xmlns="http://www.w3.org/2000/svg" xmlns:xlink="http://www.w3.org/1999/xlink">
    <!-- Generator: Sketch 55.2 (78181) - https://sketchapp.com -->
    <title>Solid/map-marker-alt</title>
    <desc>Created with Sketch.</desc>
    <defs>
        <path d="M29.25,10 L2.75,10 C2.3375,10 2,9.6625 2,9.25 L2,7 C2,5.34375 3.34375,4 5,4 L8,4 L8,0.75 C8,0.3375 8.3375,0 8.75,0 L11.25,0 C11.6625,0 12,0.3375 12,0.75 L12,4 L20,4 L20,0.75 C20,0.3375 20.3375,0 20.75,0 L23.25,0 C23.6625,0 24,0.3375 24,0.75 L24,4 L27,4 C28.65625,4 30,5.34375 30,7 L30,9.25 C30,9.6625 29.6625,10 29.25,10 Z M2.75,12 L29.25,12 C29.6625,12 30,12.3375 30,12.75 L30,29 C30,30.65625 28.65625,32 27,32 L5,32 C3.34375,32 2,30.65625 2,29 L2,12.75 C2,12.3375 2.3375,12 2.75,12 Z M10,24.75 C10,24.3375 9.6625,24 9.25,24 L6.75,24 C6.3375,24 6,24.3375 6,24.75 L6,27.25 C6,27.6625 6.3375,28 6.75,28 L9.25,28 C9.6625,28 10,27.6625 10,27.25 L10,24.75 Z M10,16.75 C10,16.3375 9.6625,16 9.25,16 L6.75,16 C6.3375,16 6,16.3375 6,16.75 L6,19.25 C6,19.6625 6.3375,20 6.75,20 L9.25,20 C9.6625,20 10,19.6625 10,19.25 L10,16.75 Z M18,24.75 C18,24.3375 17.6625,24 17.25,24 L14.75,24 C14.3375,24 14,24.3375 14,24.75 L14,27.25 C14,27.6625 14.3375,28 14.75,28 L17.25,28 C17.6625,28 18,27.6625 18,27.25 L18,24.75 Z M18,16.75 C18,16.3375 17.6625,16 17.25,16 L14.75,16 C14.3375,16 14,16.3375 14,16.75 L14,19.25 C14,19.6625 14.3375,20 14.75,20 L17.25,20 C17.6625,20 18,19.6625 18,19.25 L18,16.75 Z M26,24.75 C26,24.3375 25.6625,24 25.25,24 L22.75,24 C22.3375,24 22,24.3375 22,24.75 L22,27.25 C22,27.6625 22.3375,28 22.75,28 L25.25,28 C25.6625,28 26,27.6625 26,27.25 L26,24.75 Z M26,16.75 C26,16.3375 25.6625,16 25.25,16 L22.75,16 C22.3375,16 22,16.3375 22,16.75 L22,19.25 C22,19.6625 22.3375,20 22.75,20 L25.25,20 C25.6625,20 26,19.6625 26,19.25 L26,16.75 Z" id="path-1"></path>
    </defs>
    <g id="Page-1" stroke="none" stroke-width="1" fill="none" fill-rule="evenodd">
        <g id="Homepage" transform="translate(-315.000000, -981.000000)">
            <g id="Solid/calendar-alt" transform="translate(313.000000, 981.000000)">
                <mask id="mask-2" fill="white">
                    <use xlink:href="#path-1"></use>
                </mask>
                <g id="Mask"></g>
                <g id="Color/Black" mask="url(#mask-2)" fill="#FFFFFF" fill-rule="evenodd">
                    <rect id="Black" x="0" y="0" width="32" height="32"></rect>
                </g>
            </g>
        </g>
    </g>
</svg>