<?xml version="1.0" encoding="UTF-8"?>
<svg width="18px" height="24px" viewBox="0 0 18 24" version="1.1" xmlns="http://www.w3.org/2000/svg" xmlns:xlink="http://www.w3.org/1999/xlink">
    <defs>
        <path d="M11.0750625,23.5157813 C4.26421875,13.6420781 3,12.6287344 3,9 C3,4.02942187 7.02942187,0 12,0 C16.9705781,0 21,4.02942187 21,9 C21,12.6287344 19.7357812,13.6420781 12.9249375,23.5157813 C12.4779844,24.1614375 11.5219687,24.1613906 11.0750625,23.5157813 Z M12,12.75 C14.0710781,12.75 15.75,11.0710781 15.75,9 C15.75,6.92892188 14.0710781,5.25 12,5.25 C9.92892188,5.25 8.25,6.92892188 8.25,9 C8.25,11.0710781 9.92892188,12.75 12,12.75 Z" id="path-1"></path>
    </defs>
    <g id="Page-1" stroke="none" stroke-width="1" fill="none" fill-rule="evenodd">
        <g id="Homepage" transform="translate(-320.000000, -348.000000)">
            <g id="Solid/map-marker-alt" transform="translate(317.000000, 348.000000)">
                <mask id="mask-2" fill="white">
                    <use xlink:href="#path-1"></use>
                </mask>
                <g id="Mask"></g>
                <g id="Color/Black" mask="url(#mask-2)" fill="#FFFFFF" fill-rule="evenodd">
                    <rect id="Black" x="0" y="0" width="24" height="24"></rect>
                </g>
            </g>
        </g>
    </g>
</svg>
