<svg height="30" viewBox="0 0 32 30" width="32" xmlns="http://www.w3.org/2000/svg" xmlns:xlink="http://www.w3.org/1999/xlink"><mask id="a" fill="#fff"><path d="m32 14.2222222c0-1.1608889-.7422222-2.1481111-1.7777778-2.5143333v-6.37455557c0-1.96366666-1.5918889-3.55555555-3.5555555-3.55555555-3.6102778 3.11111111-7.8906111 7.11111111-15.1111111 7.11111111h-8.88888893c-1.47277778 0-2.66666667 1.19388891-2.66666667 2.66666671v5.3333333c0 1.4727778 1.19388889 2.6666667 2.66666667 2.6666667h2.4035c-1.04122223 3.5916666.13772222 6.4655 1.04522222 9.3022222.09455555.2955555.28905555.5496111.55122222.7155555 1.15444445.7308334 3.79749999.8698334 5.20961109.2861667.8914445-.3685 1.1088889-1.5235.4178889-2.1965-1.0282222-1.0014444-1.6742222-2.0505556-1.0997222-3.381.0917231-.212049.0698736-.4561149-.0580556-.6485-.9060555-1.3710556-.1989444-3.4503889 1.5842778-4.0417778 6.524.402 10.5344445 4.135 13.9460556 7.0749445 1.9636666 0 3.5555555-1.5918889 3.5555555-3.5555556v-6.3745555c1.0355556-.3662223 1.7777778-1.3534445 1.7777778-2.5143334zm-5.3333333 7.7697222c-3.0338334-2.4988333-6.9462778-5.1633333-12.4444445-5.8323333v-3.8748333c5.4981667-.669 9.4106111-3.33344447 12.4444445-5.83233336z" fill="#fff" fill-rule="evenodd"/></mask><g fill="#fff" fill-rule="evenodd" mask="url(#a)" transform="translate(0 -1)"><path d="m0 0h32v32h-32z"/></g></svg>