<?xml version="1.0" encoding="UTF-8"?>
<svg width="216px" height="60px" viewBox="0 0 216 60" version="1.1" xmlns="http://www.w3.org/2000/svg" xmlns:xlink="http://www.w3.org/1999/xlink">
    <!-- Generator: Sketch 54.1 (76490) - https://sketchapp.com -->
    <title>Logo</title>
    <desc>Created with Sketch.</desc>
    <g id="Page-1" stroke="none" stroke-width="1" fill="none" fill-rule="evenodd">
        <g id="Homepage" transform="translate(-97.000000, -60.000000)" fill-rule="nonzero">
            <g id="Logo" transform="translate(97.625000, 60.921875)">
                <path d="M25.34375,1.375 L25.34375,25.078125 L19.9375,25.078125 L19.9375,8.015625 L14.515625,25.078125 L10.859375,25.078125 L5.421875,7.875 L5.421875,25.078125 L0,25.078125 L0,1.375 L8.15625,1.375 L12.671875,15.328125 L17.21875,1.375 L25.34375,1.375 Z M29.078125,8.09375 L34.328125,8.09375 L34.328125,25.078125 L29.078125,25.078125 L29.078125,8.09375 Z M31.75,6.34375 C31.1666637,6.34375 30.6302108,6.20052227 30.140625,5.9140625 C29.6510392,5.62760273 29.2604181,5.24218992 28.96875,4.7578125 C28.6770819,4.27343508 28.53125,3.73958625 28.53125,3.15625 C28.53125,2.58333047 28.6770819,2.05468992 28.96875,1.5703125 C29.2604181,1.08593508 29.6510392,0.703126406 30.140625,0.421875 C30.6302108,0.140623594 31.1666637,0 31.75,0 C32.3125028,0 32.8359351,0.140623594 33.3203125,0.421875 C33.8046899,0.703126406 34.1901027,1.08593508 34.4765625,1.5703125 C34.7630223,2.05468992 34.90625,2.58333047 34.90625,3.15625 C34.90625,3.72916953 34.7630223,4.26041422 34.4765625,4.75 C34.1901027,5.23958578 33.8046899,5.62760273 33.3203125,5.9140625 C32.8359351,6.20052227 32.3125028,6.34375 31.75,6.34375 Z M52.5,1.078125 L52.5,25.078125 L47.40625,25.078125 L47.40625,23.546875 C46.9895813,24.140628 46.4166703,24.5963526 45.6875,24.9140625 C44.9583297,25.2317724 44.1562544,25.390625 43.28125,25.390625 C42.020827,25.390625 40.8645886,25.0703157 39.8125,24.4296875 C38.7604114,23.7890593 37.919274,22.8046941 37.2890625,21.4765625 C36.658851,20.1484309 36.34375,18.5104264 36.34375,16.5625 C36.34375,14.6041569 36.658851,12.9609441 37.2890625,11.6328125 C37.919274,10.3046809 38.7604114,9.31771156 39.8125,8.671875 C40.8645886,8.02603844 42.020827,7.703125 43.28125,7.703125 C44.1562544,7.703125 44.9583297,7.86197758 45.6875,8.1796875 C46.4166703,8.49739742 46.9895813,8.95312203 47.40625,9.546875 L47.40625,1.078125 L52.5,1.078125 Z M44.65625,21.109375 C45.250003,21.109375 45.7864559,20.9375017 46.265625,20.59375 C46.7447941,20.2499983 47.1249986,19.7369826 47.40625,19.0546875 C47.6875014,18.3723924 47.828125,17.5416716 47.828125,16.5625 C47.828125,15.6249953 47.697918,14.8125034 47.4375,14.125 C47.177082,13.4374966 46.8046899,12.908856 46.3203125,12.5390625 C45.8359351,12.169269 45.2708366,11.984375 44.625,11.984375 C43.6874953,11.984375 42.9270863,12.3697878 42.34375,13.140625 C41.7604137,13.9114622 41.46875,15.0520758 41.46875,16.5625 C41.46875,18.0625075 41.7630179,19.1953087 42.3515625,19.9609375 C42.9401071,20.7265663 43.7083286,21.109375 44.65625,21.109375 Z M70.65625,1.078125 L70.65625,25.078125 L65.5625,25.078125 L65.5625,23.546875 C65.1458313,24.140628 64.5729203,24.5963526 63.84375,24.9140625 C63.1145797,25.2317724 62.3125044,25.390625 61.4375,25.390625 C60.177077,25.390625 59.0208386,25.0703157 57.96875,24.4296875 C56.9166614,23.7890593 56.075524,22.8046941 55.4453125,21.4765625 C54.815101,20.1484309 54.5,18.5104264 54.5,16.5625 C54.5,14.6041569 54.815101,12.9609441 55.4453125,11.6328125 C56.075524,10.3046809 56.9166614,9.31771156 57.96875,8.671875 C59.0208386,8.02603844 60.177077,7.703125 61.4375,7.703125 C62.3125044,7.703125 63.1145797,7.86197758 63.84375,8.1796875 C64.5729203,8.49739742 65.1458313,8.95312203 65.5625,9.546875 L65.5625,1.078125 L70.65625,1.078125 Z M62.8125,21.109375 C63.406253,21.109375 63.9427059,20.9375017 64.421875,20.59375 C64.9010441,20.2499983 65.2812486,19.7369826 65.5625,19.0546875 C65.8437514,18.3723924 65.984375,17.5416716 65.984375,16.5625 C65.984375,15.6249953 65.854168,14.8125034 65.59375,14.125 C65.333332,13.4374966 64.9609399,12.908856 64.4765625,12.5390625 C63.9921851,12.169269 63.4270866,11.984375 62.78125,11.984375 C61.8437453,11.984375 61.0833363,12.3697878 60.5,13.140625 C59.9166637,13.9114622 59.625,15.0520758 59.625,16.5625 C59.625,18.0625075 59.9192679,19.1953087 60.5078125,19.9609375 C61.0963571,20.7265663 61.8645786,21.109375 62.8125,21.109375 Z M73.828125,1.078125 L79.109375,1.078125 L79.109375,25.078125 L73.828125,25.078125 L73.828125,1.078125 Z M97.453125,17.609375 L86.078125,17.609375 C86.1718755,18.8072977 86.5468717,19.7265593 87.203125,20.3671875 C87.8593783,21.0078157 88.6666619,21.328125 89.625,21.328125 C90.3020867,21.328125 90.8958308,21.1510434 91.40625,20.796875 C91.9166692,20.4427066 92.2916655,19.9270867 92.53125,19.25 L97.3125,19.890625 C96.979165,21.0572975 96.4479203,22.0546834 95.71875,22.8828125 C94.9895797,23.7109416 94.106776,24.3411437 93.0703125,24.7734375 C92.033849,25.2057313 90.8958395,25.421875 89.65625,25.421875 C87.8854078,25.421875 86.3463607,25.0729202 85.0390625,24.375 C83.7317643,23.6770798 82.726566,22.6666733 82.0234375,21.34375 C81.320309,20.0208267 80.96875,18.4427175 80.96875,16.609375 C80.96875,14.7760325 81.3255173,13.1953191 82.0390625,11.8671875 C82.7526077,10.5390559 83.7499936,9.52604516 85.03125,8.828125 C86.3125064,8.13020484 87.7968666,7.78125 89.484375,7.78125 C91.0677162,7.78125 92.4583273,8.09114273 93.65625,8.7109375 C94.8541727,9.33073227 95.7942674,10.2838477 96.4765625,11.5703125 C97.1588576,12.8567773 97.5,14.4583238 97.5,16.375 L97.453125,17.609375 Z M89.515625,11.46875 C88.5468702,11.46875 87.7812528,11.7187475 87.21875,12.21875 C86.6562472,12.7187525 86.2968758,13.5208278 86.140625,14.625 L92.46875,14.625 C92.4270831,13.5937448 92.1380235,12.8098985 91.6015625,12.2734375 C91.0651015,11.7369765 90.3697959,11.46875 89.515625,11.46875 Z M105.546875,25.390625 C104.026034,25.390625 102.596361,25.1562523 101.257812,24.6875 C99.9192641,24.2187477 98.7083387,23.5312545 97.625,22.625 L100.140625,19.296875 C100.994796,19.9947952 101.854162,20.5338523 102.71875,20.9140625 C103.583338,21.2942727 104.479162,21.484375 105.40625,21.484375 C106.187504,21.484375 106.786456,21.3515638 107.203125,21.0859375 C107.619794,20.8203112 107.828125,20.4583356 107.828125,20 C107.828125,19.6562483 107.69271,19.3776052 107.421875,19.1640625 C107.15104,18.9505198 106.812502,18.789063 106.40625,18.6796875 C105.999998,18.570312 105.421879,18.4427091 104.671875,18.296875 C104.119789,18.2135412 103.619794,18.1145839 103.171875,18 C101.744785,17.6562483 100.625004,17.1197953 99.8125,16.390625 C98.9999959,15.6614547 98.59375,14.5572991 98.59375,13.078125 C98.59375,11.8697856 98.8802055,10.8619832 99.453125,10.0546875 C100.026045,9.2473918 100.807287,8.64843945 101.796875,8.2578125 C102.786463,7.86718555 103.91666,7.671875 105.1875,7.671875 C106.604174,7.671875 107.937494,7.89843523 109.1875,8.3515625 C110.437506,8.80468977 111.526037,9.41666281 112.453125,10.1875 L110.09375,13.375 C109.468747,12.8645808 108.71615,12.4348976 107.835938,12.0859375 C106.955725,11.7369774 106.067713,11.5625 105.171875,11.5625 C104.557289,11.5625 104.039065,11.6614573 103.617188,11.859375 C103.19531,12.0572927 102.984375,12.3802061 102.984375,12.828125 C102.984375,13.1510433 103.117186,13.4088532 103.382812,13.6015625 C103.648439,13.7942718 103.986977,13.9427078 104.398438,14.046875 C104.809898,14.1510422 105.39583,14.2656244 106.15625,14.390625 C106.270834,14.4114584 106.583331,14.4687495 107.09375,14.5625 C107.604169,14.6562505 108.088539,14.7656244 108.546875,14.890625 C109.869798,15.2552102 110.924475,15.8098921 111.710938,16.5546875 C112.4974,17.2994829 112.890625,18.3645764 112.890625,19.75 C112.890625,20.9375059 112.583336,21.9557249 111.96875,22.8046875 C111.354164,23.6536501 110.492193,24.2968728 109.382812,24.734375 C108.273432,25.1718772 106.994799,25.390625 105.546875,25.390625 Z M123.875,7.703125 C125.135423,7.703125 126.289057,8.02603844 127.335938,8.671875 C128.382818,9.31771156 129.221351,10.3046809 129.851562,11.6328125 C130.481774,12.9609441 130.796875,14.6041569 130.796875,16.5625 C130.796875,18.5104264 130.481774,20.1484309 129.851562,21.4765625 C129.221351,22.8046941 128.382818,23.7890593 127.335938,24.4296875 C126.289057,25.0703157 125.135423,25.390625 123.875,25.390625 C122.989579,25.390625 122.182295,25.2317724 121.453125,24.9140625 C120.723955,24.5963526 120.151044,24.1354197 119.734375,23.53125 L119.734375,25.078125 L114.65625,25.078125 L114.65625,1.078125 L119.734375,1.078125 L119.734375,9.5625 C120.151044,8.95833031 120.723955,8.49739742 121.453125,8.1796875 C122.182295,7.86197758 122.989579,7.703125 123.875,7.703125 Z M122.5,21.109375 C123.114586,21.109375 123.661456,20.94271 124.140625,20.609375 C124.619794,20.27604 124.997394,19.7708367 125.273438,19.09375 C125.549481,18.4166633 125.6875,17.5729217 125.6875,16.5625 C125.6875,15.5416616 125.549481,14.6875034 125.273438,14 C124.997394,13.3124966 124.619794,12.8046891 124.140625,12.4765625 C123.661456,12.1484359 123.119795,11.984375 122.515625,11.984375 C121.869788,11.984375 121.307294,12.169269 120.828125,12.5390625 C120.348956,12.908856 119.976564,13.4401007 119.710938,14.1328125 C119.445311,14.8255243 119.3125,15.635412 119.3125,16.5625 C119.3125,17.5416716 119.453124,18.3723924 119.734375,19.0546875 C120.015626,19.7369826 120.395831,20.2499983 120.875,20.59375 C121.354169,20.9375017 121.89583,21.109375 122.5,21.109375 Z M137.8125,10.578125 C138.354169,9.75520422 139.093745,9.1067732 140.03125,8.6328125 C140.968755,8.1588518 142.093743,7.91666672 143.40625,7.90625 L143.40625,12.53125 C142.04166,12.53125 140.973962,12.6822902 140.203125,12.984375 C139.432288,13.2864598 138.882814,13.7604134 138.554688,14.40625 C138.226561,15.0520866 138.0625,15.9218695 138.0625,17.015625 L138.0625,25.078125 L132.8125,25.078125 L132.8125,8.09375 L137.8125,8.09375 L137.8125,10.578125 Z M152.125,25.421875 C150.374991,25.421875 148.825528,25.0677119 147.476562,24.359375 C146.127597,23.6510381 145.075525,22.6328191 144.320312,21.3046875 C143.5651,19.9765559 143.1875,18.4062591 143.1875,16.59375 C143.1875,14.78125 143.562496,13.2109441 144.3125,11.8828125 C145.062504,10.5546809 146.111972,9.53906602 147.460938,8.8359375 C148.809903,8.13280898 150.364575,7.78125 152.125,7.78125 C153.885425,7.78125 155.442702,8.13020484 156.796875,8.828125 C158.151048,9.52604516 159.205725,10.5390559 159.960938,11.8671875 C160.71615,13.1953191 161.09375,14.7708242 161.09375,16.59375 C161.09375,18.4166758 160.713545,19.9921809 159.953125,21.3203125 C159.192705,22.6484441 158.135423,23.664059 156.78125,24.3671875 C155.427077,25.070316 153.875009,25.421875 152.125,25.421875 Z M152.0625,21.296875 C152.833337,21.296875 153.510414,21.0989603 154.09375,20.703125 C154.677086,20.3072897 155.127603,19.7552119 155.445312,19.046875 C155.763022,18.3385381 155.921875,17.520838 155.921875,16.59375 C155.921875,15.6562453 155.763022,14.8281286 155.445312,14.109375 C155.127603,13.3906214 154.677086,12.8333353 154.09375,12.4375 C153.510414,12.0416647 152.833337,11.84375 152.0625,11.84375 C151.33333,11.84375 150.687503,12.0416647 150.125,12.4375 C149.562497,12.8333353 149.127606,13.3906214 148.820312,14.109375 C148.513019,14.8281286 148.359375,15.6562453 148.359375,16.59375 C148.359375,17.520838 148.513019,18.3385381 148.820312,19.046875 C149.127606,19.7552119 149.562497,20.3072897 150.125,20.703125 C150.687503,21.0989603 151.33333,21.296875 152.0625,21.296875 Z M177.953125,8.09375 L177.953125,25.078125 L173.15625,25.078125 L173.03125,23.125 C172.479164,23.8437536 171.791671,24.4010397 170.96875,24.796875 C170.145829,25.1927103 169.229172,25.390625 168.21875,25.390625 C166.374991,25.390625 164.976567,24.8854217 164.023438,23.875 C163.070308,22.8645783 162.59375,21.4218844 162.59375,19.546875 L162.59375,8.09375 L167.75,8.09375 L167.75,18.40625 C167.75,19.3854216 167.955727,20.1041644 168.367188,20.5625 C168.778648,21.0208356 169.30208,21.25 169.9375,21.25 C170.760421,21.25 171.453122,20.9401073 172.015625,20.3203125 C172.578128,19.7005177 172.864583,18.6770905 172.875,17.25 L172.875,8.09375 L177.953125,8.09375 Z M196.34375,8.09375 L196.34375,24.4375 C196.34375,25.9583409 196.190106,27.2604113 195.882812,28.34375 C195.575519,29.4270887 194.833339,30.3515587 193.65625,31.1171875 C192.479161,31.8828163 190.697929,32.265625 188.3125,32.265625 C185.999988,32.265625 184.148444,31.8072963 182.757812,30.890625 C181.367181,29.9739537 180.630209,28.3541783 180.546875,26.03125 L185.71875,26.03125 C185.802084,27.0625052 186.05729,27.8046852 186.484375,28.2578125 C186.91146,28.7109398 187.562496,28.9375 188.4375,28.9375 C189.406255,28.9375 190.104165,28.6640652 190.53125,28.1171875 C190.958335,27.5703098 191.171875,26.6927144 191.171875,25.484375 L191.171875,22.96875 C190.723956,23.5520863 190.125004,24.0130191 189.375,24.3515625 C188.624996,24.6901059 187.79688,24.859375 186.890625,24.859375 C185.598952,24.859375 184.419276,24.5208367 183.351562,23.84375 C182.283849,23.1666633 181.434899,22.179694 180.804688,20.8828125 C180.174476,19.585931 179.859375,18.0520922 179.859375,16.28125 C179.859375,14.5104078 180.174476,12.9843814 180.804688,11.703125 C181.434899,10.4218686 182.289057,9.44792 183.367188,8.78125 C184.445318,8.11458 185.640618,7.78125 186.953125,7.78125 C187.932297,7.78125 188.80208,7.97135227 189.5625,8.3515625 C190.32292,8.73177273 190.906248,9.255205 191.3125,9.921875 L191.3125,8.09375 L196.34375,8.09375 Z M188.25,20.9375 C189.291672,20.9375 190.124997,20.5520872 190.75,19.78125 C191.375003,19.0104128 191.6875,17.8906323 191.6875,16.421875 C191.6875,14.9635344 191.375003,13.8411498 190.75,13.0546875 C190.124997,12.2682252 189.291672,11.875 188.25,11.875 C187.572913,11.875 186.976565,12.0468733 186.460938,12.390625 C185.94531,12.7343767 185.541668,13.2473924 185.25,13.9296875 C184.958332,14.6119826 184.8125,15.4427034 184.8125,16.421875 C184.8125,17.4010466 184.958332,18.2291633 185.25,18.90625 C185.541668,19.5833367 185.94531,20.0911441 186.460938,20.4296875 C186.976565,20.7682309 187.572913,20.9375 188.25,20.9375 Z M209.484375,7.78125 C211.161467,7.78125 212.479162,8.22134977 213.4375,9.1015625 C214.395838,9.98177523 214.875,11.2239503 214.875,12.828125 L214.875,25.078125 L209.765625,25.078125 L209.765625,15.015625 C209.765625,13.9114528 209.544273,13.1223982 209.101562,12.6484375 C208.658852,12.1744768 208.046879,11.9375 207.265625,11.9375 C206.473954,11.9375 205.841148,12.1822892 205.367188,12.671875 C204.893227,13.1614608 204.651042,13.9531195 204.640625,15.046875 L204.640625,25.078125 L199.53125,25.078125 L199.53125,1.078125 L204.640625,1.078125 L204.640625,9.890625 C205.182294,9.20312156 205.861975,8.6796893 206.679688,8.3203125 C207.4974,7.9609357 208.432286,7.78125 209.484375,7.78125 Z" id="Middlesbrough" fill="#FFFFFF"></path>
                <path d="M5.421875,39.09375 L5.421875,44.453125 L15.796875,44.453125 L15.796875,49.125 L5.421875,49.125 L5.421875,58.078125 L0,58.078125 L0,34.375 L16.984375,34.375 L16.984375,39.09375 L5.421875,39.09375 Z M23.921875,43.578125 C24.4635444,42.7552042 25.2031203,42.1067732 26.140625,41.6328125 C27.0781297,41.1588518 28.2031184,40.9166667 29.515625,40.90625 L29.515625,45.53125 C28.1510348,45.53125 27.0833372,45.6822902 26.3125,45.984375 C25.5416628,46.2864598 24.9921891,46.7604134 24.6640625,47.40625 C24.3359359,48.0520866 24.171875,48.9218695 24.171875,50.015625 L24.171875,58.078125 L18.921875,58.078125 L18.921875,41.09375 L23.921875,41.09375 L23.921875,43.578125 Z M38.234375,58.421875 C36.4843662,58.421875 34.9349026,58.0677119 33.5859375,57.359375 C32.2369724,56.6510381 31.1848996,55.6328191 30.4296875,54.3046875 C29.6744754,52.9765559 29.296875,51.4062591 29.296875,49.59375 C29.296875,47.78125 29.6718712,46.2109441 30.421875,44.8828125 C31.1718788,43.5546809 32.2213474,42.539066 33.5703125,41.8359375 C34.9192776,41.132809 36.4739495,40.78125 38.234375,40.78125 C39.9948005,40.78125 41.5520766,41.1302048 42.90625,41.828125 C44.2604234,42.5260452 45.3151004,43.5390559 46.0703125,44.8671875 C46.8255246,46.1953191 47.203125,47.7708242 47.203125,49.59375 C47.203125,51.4166758 46.8229205,52.9921809 46.0625,54.3203125 C45.3020795,55.6484441 44.2447984,56.664059 42.890625,57.3671875 C41.5364516,58.070316 39.9843838,58.421875 38.234375,58.421875 Z M38.171875,54.296875 C38.9427122,54.296875 39.6197887,54.0989603 40.203125,53.703125 C40.7864613,53.3072897 41.2369776,52.7552119 41.5546875,52.046875 C41.8723974,51.3385381 42.03125,50.520838 42.03125,49.59375 C42.03125,48.6562453 41.8723974,47.8281286 41.5546875,47.109375 C41.2369776,46.3906214 40.7864613,45.8333353 40.203125,45.4375 C39.6197887,45.0416647 38.9427122,44.84375 38.171875,44.84375 C37.4427047,44.84375 36.7968778,45.0416647 36.234375,45.4375 C35.6718722,45.8333353 35.2369807,46.3906214 34.9296875,47.109375 C34.6223943,47.8281286 34.46875,48.6562453 34.46875,49.59375 C34.46875,50.520838 34.6223943,51.3385381 34.9296875,52.046875 C35.2369807,52.7552119 35.6718722,53.3072897 36.234375,53.703125 C36.7968778,54.0989603 37.4427047,54.296875 38.171875,54.296875 Z M58.984375,40.78125 C60.6614667,40.78125 61.9791619,41.2213498 62.9375,42.1015625 C63.8958381,42.9817752 64.375,44.2239503 64.375,45.828125 L64.375,58.078125 L59.265625,58.078125 L59.265625,48.015625 C59.265625,46.9114528 59.044273,46.1223982 58.6015625,45.6484375 C58.158852,45.1744768 57.5468789,44.9375 56.765625,44.9375 C55.9739544,44.9375 55.3411482,45.1822892 54.8671875,45.671875 C54.3932268,46.1614608 54.1510417,46.9531195 54.140625,48.046875 L54.140625,58.078125 L49.03125,58.078125 L49.03125,41.09375 L54.140625,41.09375 L54.140625,42.890625 C54.6822944,42.2031216 55.3619751,41.6796893 56.1796875,41.3203125 C56.9973999,40.9609357 57.9322864,40.78125 58.984375,40.78125 Z M73.078125,58.390625 C71.3801998,58.390625 70.1067751,57.9114631 69.2578125,56.953125 C68.4088499,55.9947869 67.984375,54.5364681 67.984375,52.578125 L67.984375,44.5 L65.28125,44.5 L65.28125,41.09375 L67.984375,41.09375 L67.984375,35.671875 L73.140625,35.671875 L73.140625,41.09375 L76.984375,41.09375 L76.984375,44.5 L73.140625,44.5 L73.140625,51.59375 C73.140625,52.2187531 73.1874995,52.7239564 73.28125,53.109375 C73.3750005,53.4947936 73.5598945,53.7942698 73.8359375,54.0078125 C74.1119805,54.2213552 74.5156223,54.328125 75.046875,54.328125 C75.5572942,54.328125 76.2031211,54.2187511 76.984375,54 L76.984375,57.78125 C75.5156177,58.187502 74.2135473,58.390625 73.078125,58.390625 Z M103.921875,53.328125 L103.921875,58.078125 L86.296875,58.078125 L86.296875,34.375 L103.28125,34.375 L103.28125,39.09375 L91.71875,39.09375 L91.71875,43.578125 L102.375,43.578125 L102.375,48.234375 L91.71875,48.234375 L91.71875,53.328125 L103.921875,53.328125 Z M116.34375,40.78125 C118.020842,40.78125 119.338537,41.2213498 120.296875,42.1015625 C121.255213,42.9817752 121.734375,44.2239503 121.734375,45.828125 L121.734375,58.078125 L116.625,58.078125 L116.625,48.015625 C116.625,46.9114528 116.403648,46.1223982 115.960938,45.6484375 C115.518227,45.1744768 114.906254,44.9375 114.125,44.9375 C113.333329,44.9375 112.700523,45.1822892 112.226562,45.671875 C111.752602,46.1614608 111.510417,46.9531195 111.5,48.046875 L111.5,58.078125 L106.390625,58.078125 L106.390625,41.09375 L111.5,41.09375 L111.5,42.890625 C112.041669,42.2031216 112.72135,41.6796893 113.539062,41.3203125 C114.356775,40.9609357 115.291661,40.78125 116.34375,40.78125 Z M139.625,34.078125 L139.625,58.078125 L134.53125,58.078125 L134.53125,56.546875 C134.114581,57.140628 133.54167,57.5963526 132.8125,57.9140625 C132.08333,58.2317724 131.281254,58.390625 130.40625,58.390625 C129.145827,58.390625 127.989589,58.0703157 126.9375,57.4296875 C125.885411,56.7890593 125.044274,55.8046941 124.414062,54.4765625 C123.783851,53.1484309 123.46875,51.5104264 123.46875,49.5625 C123.46875,47.6041569 123.783851,45.9609441 124.414062,44.6328125 C125.044274,43.3046809 125.885411,42.3177116 126.9375,41.671875 C127.989589,41.0260384 129.145827,40.703125 130.40625,40.703125 C131.281254,40.703125 132.08333,40.8619776 132.8125,41.1796875 C133.54167,41.4973974 134.114581,41.953122 134.53125,42.546875 L134.53125,34.078125 L139.625,34.078125 Z M131.78125,54.109375 C132.375003,54.109375 132.911456,53.9375017 133.390625,53.59375 C133.869794,53.2499983 134.249999,52.7369826 134.53125,52.0546875 C134.812501,51.3723924 134.953125,50.5416716 134.953125,49.5625 C134.953125,48.6249953 134.822918,47.8125034 134.5625,47.125 C134.302082,46.4374966 133.92969,45.908856 133.445312,45.5390625 C132.960935,45.169269 132.395837,44.984375 131.75,44.984375 C130.812495,44.984375 130.052086,45.3697878 129.46875,46.140625 C128.885414,46.9114622 128.59375,48.0520758 128.59375,49.5625 C128.59375,51.0625075 128.888018,52.1953087 129.476562,52.9609375 C130.065107,53.7265663 130.833329,54.109375 131.78125,54.109375 Z" id="FrontEnd" fill="#97DAF7"></path>
            </g>
        </g>
    </g>
</svg>