<svg height="60" viewBox="0 0 216 60" width="216" xmlns="http://www.w3.org/2000/svg"><g fill="none" transform="translate(.625 .921875)"><path d="m25.34375 1.375v23.703125h-5.40625v-17.0625l-5.421875 17.0625h-3.65625l-5.4375-17.203125v17.203125h-5.421875v-23.703125h8.15625l4.515625 13.953125 4.546875-13.953125zm3.734375 6.71875h5.25v16.984375h-5.25zm2.671875-1.75c-.5833363 0-1.1197892-.14322773-1.609375-.4296875s-.8802069-.67187258-1.171875-1.15625-.4375-1.01822625-.4375-1.6015625c0-.57291953.1458319-1.10156008.4375-1.5859375s.6822892-.86718609 1.171875-1.1484375 1.0260387-.421875 1.609375-.421875c.5625028 0 1.0859351.14062359 1.5703125.421875s.8697902.66406008 1.15625 1.1484375.4296875 1.01301797.4296875 1.5859375-.1432277 1.10416422-.4296875 1.59375-.6718726.87760273-1.15625 1.1640625-1.0078097.4296875-1.5703125.4296875zm20.75-5.265625v24h-5.09375v-1.53125c-.4166687.593753-.9895797 1.0494776-1.71875 1.3671875s-1.5312456.4765625-2.40625.4765625c-1.260423 0-2.4166614-.3203093-3.46875-.9609375s-1.893226-1.6249934-2.5234375-2.953125-.9453125-2.9661361-.9453125-4.9140625c0-1.9583431.315101-3.6015559.9453125-4.9296875s1.4713489-2.31510094 2.5234375-2.9609375 2.208327-.96875 3.46875-.96875c.8750044 0 1.6770797.15885258 2.40625.4765625s1.3020813.77343453 1.71875 1.3671875v-8.46875zm-7.84375 20.03125c.593753 0 1.1302059-.1718733 1.609375-.515625s.8593736-.8567674 1.140625-1.5390625.421875-1.5130159.421875-2.4921875c0-.9375047-.130207-1.7499966-.390625-2.4375s-.6328101-1.216144-1.1171875-1.5859375-1.0494759-.5546875-1.6953125-.5546875c-.9375047 0-1.6979137.3854128-2.28125 1.15625s-.875 1.9114508-.875 3.421875c0 1.5000075.2942679 2.6328087.8828125 3.3984375s1.3567661 1.1484375 2.3046875 1.1484375zm26-20.03125v24h-5.09375v-1.53125c-.4166687.593753-.9895797 1.0494776-1.71875 1.3671875s-1.5312456.4765625-2.40625.4765625c-1.260423 0-2.4166614-.3203093-3.46875-.9609375s-1.893226-1.6249934-2.5234375-2.953125-.9453125-2.9661361-.9453125-4.9140625c0-1.9583431.315101-3.6015559.9453125-4.9296875s1.4713489-2.31510094 2.5234375-2.9609375 2.208327-.96875 3.46875-.96875c.8750044 0 1.6770797.15885258 2.40625.4765625s1.3020813.77343453 1.71875 1.3671875v-8.46875zm-7.84375 20.03125c.593753 0 1.1302059-.1718733 1.609375-.515625s.8593736-.8567674 1.140625-1.5390625.421875-1.5130159.421875-2.4921875c0-.9375047-.130207-1.7499966-.390625-2.4375s-.6328101-1.216144-1.1171875-1.5859375-1.0494759-.5546875-1.6953125-.5546875c-.9375047 0-1.6979137.3854128-2.28125 1.15625s-.875 1.9114508-.875 3.421875c0 1.5000075.2942679 2.6328087.8828125 3.3984375s1.3567661 1.1484375 2.3046875 1.1484375zm11.015625-20.03125h5.28125v24h-5.28125zm23.625 16.53125h-11.375c.0937505 1.1979227.4687467 2.1171843 1.125 2.7578125s1.4635369.9609375 2.421875.9609375c.6770867 0 1.2708308-.1770816 1.78125-.53125s.8854155-.8697883 1.125-1.546875l4.78125.640625c-.333335 1.1666725-.8645797 2.1640584-1.59375 2.9921875s-1.611974 1.4583312-2.6484375 1.890625-2.174473.6484375-3.4140625.6484375c-1.7708422 0-3.3098893-.3489548-4.6171875-1.046875s-2.3124965-1.7083267-3.015625-3.03125-1.0546875-2.9010325-1.0546875-4.734375.3567673-3.4140559 1.0703125-4.7421875 1.7109311-2.34114234 2.9921875-3.0390625 2.7656166-1.046875 4.453125-1.046875c1.5833412 0 2.9739523.30989273 4.171875.9296875s2.1380174 1.5729102 2.8203125 2.859375 1.0234375 2.8880113 1.0234375 4.8046875zm-7.9375-6.140625c-.9687548 0-1.7343722.2499975-2.296875.75s-.9218742 1.3020778-1.078125 2.40625h6.328125c-.0416669-1.0312552-.3307265-1.8151015-.8671875-2.3515625s-1.2317666-.8046875-2.0859375-.8046875zm16.03125 13.921875c-1.520841 0-2.950514-.2343727-4.289063-.703125-1.3385479-.4687523-2.5494733-1.1562455-3.632812-2.0625l2.515625-3.328125c.854171.6979202 1.713537 1.2369773 2.578125 1.6171875s1.760412.5703125 2.6875.5703125c.781254 0 1.380206-.1328112 1.796875-.3984375s.625-.6276019.625-1.0859375c0-.3437517-.135415-.6223948-.40625-.8359375s-.609373-.3749995-1.015625-.484375-.984371-.2369784-1.734375-.3828125c-.552086-.0833338-1.052081-.1822911-1.5-.296875-1.42709-.3437517-2.546871-.8802047-3.359375-1.609375-.8125041-.7291703-1.21875-1.8333259-1.21875-3.3125 0-1.2083394.2864555-2.2161418.859375-3.0234375.57292-.8072957 1.354162-1.40624805 2.34375-1.796875s2.119785-.5859375 3.390625-.5859375c1.416674 0 2.749994.22656023 4 .6796875s2.338537 1.06510031 3.265625 1.8359375l-2.359375 3.1875c-.625003-.5104192-1.3776-.9401024-2.257812-1.2890625-.880213-.3489601-1.768225-.5234375-2.664063-.5234375-.614586 0-1.13281.0989573-1.554687.296875-.421878.1979177-.632813.5208311-.632813.96875 0 .3229183.132811.5807282.398437.7734375.265627.1927093.604165.3411453 1.015626.4453125.41146.1041672.997392.2187494 1.757812.34375.114584.0208334.427081.0781245.9375.171875s.994789.2031244 1.453125.328125c1.322923.3645852 2.3776.9192671 3.164063 1.6640625.786462.7447954 1.179687 1.8098889 1.179687 3.1953125 0 1.1875059-.307289 2.2057249-.921875 3.0546875s-1.476557 1.4921853-2.585938 1.9296875c-1.10938.4375022-2.388013.65625-3.835937.65625zm18.328125-17.6875c1.260423 0 2.414057.32291344 3.460938.96875 1.04688.64583656 1.885413 1.6328059 2.515624 2.9609375.630212 1.3281316.945313 2.9713444.945313 4.9296875 0 1.9479264-.315101 3.5859309-.945313 4.9140625-.630211 1.3281316-1.468744 2.3124968-2.515624 2.953125-1.046881.6406282-2.200515.9609375-3.460938.9609375-.885421 0-1.692705-.1588526-2.421875-.4765625s-1.302081-.7786428-1.71875-1.3828125v1.546875h-5.078125v-24h5.078125v8.484375c.416669-.60416969.98958-1.06510258 1.71875-1.3828125s1.536454-.4765625 2.421875-.4765625zm-1.375 13.40625c.614586 0 1.161456-.166665 1.640625-.5s.856769-.8385383 1.132813-1.515625c.276043-.6770867.414062-1.5208283.414062-2.53125 0-1.0208384-.138019-1.8749966-.414062-2.5625-.276044-.6875034-.653644-1.1953109-1.132813-1.5234375s-1.02083-.4921875-1.625-.4921875c-.645837 0-1.208331.184894-1.6875.5546875s-.851561.9010382-1.117187 1.59375c-.265627.6927118-.398438 1.5025995-.398438 2.4296875 0 .9791716.140624 1.8098924.421875 2.4921875s.661456 1.1953108 1.140625 1.5390625 1.02083.515625 1.625.515625zm15.3125-10.53125c.541669-.82292078 1.281245-1.4713518 2.21875-1.9453125s2.062493-.71614578 3.375-.7265625v4.625c-1.36459 0-2.432288.1510402-3.203125.453125s-1.320311.7760384-1.648437 1.421875c-.328127.6458366-.492188 1.5156195-.492188 2.609375v8.0625h-5.25v-16.984375h5zm14.3125 14.84375c-1.750009 0-3.299472-.3541631-4.648438-1.0625-1.348965-.7083369-2.401037-1.7265559-3.15625-3.0546875-.755212-1.3281316-1.132812-2.8984284-1.132812-4.7109375 0-1.8125.374996-3.3828059 1.125-4.7109375s1.799472-2.34374648 3.148438-3.046875c1.348965-.70312852 2.903637-1.0546875 4.664062-1.0546875s3.317702.34895484 4.671875 1.046875 2.40885 1.7109309 3.164063 3.0390625c.755212 1.3281316 1.132812 2.9036367 1.132812 4.7265625s-.380205 3.3984309-1.140625 4.7265625-1.817702 2.3437465-3.171875 3.046875-2.906241 1.0546875-4.65625 1.0546875zm-.0625-4.125c.770837 0 1.447914-.1979147 2.03125-.59375s1.033853-.9479131 1.351562-1.65625c.31771-.7083369.476563-1.526037.476563-2.453125 0-.9375047-.158853-1.7656214-.476563-2.484375-.317709-.7187536-.768226-1.2760397-1.351562-1.671875s-1.260413-.59375-2.03125-.59375c-.72917 0-1.374997.1979147-1.9375.59375s-.997394.9531214-1.304688 1.671875c-.307293.7187536-.460937 1.5468703-.460937 2.484375 0 .927088.153644 1.7447881.460937 2.453125.307294.7083369.742185 1.2604147 1.304688 1.65625s1.20833.59375 1.9375.59375zm25.890625-13.203125v16.984375h-4.796875l-.125-1.953125c-.552086.7187536-1.239579 1.2760397-2.0625 1.671875s-1.739578.59375-2.75.59375c-1.843759 0-3.242183-.5052033-4.195312-1.515625-.95313-1.0104217-1.429688-2.4531156-1.429688-4.328125v-11.453125h5.15625v10.3125c0 .9791716.205727 1.6979144.617188 2.15625.41146.4583356.934892.6875 1.570312.6875.822921 0 1.515622-.3098927 2.078125-.9296875s.848958-1.643222.859375-3.0703125v-9.15625zm18.390625 0v16.34375c0 1.5208409-.153644 2.8229113-.460938 3.90625-.307293 1.0833387-1.049473 2.0078087-2.226562 2.7734375s-2.958321 1.1484375-5.34375 1.1484375c-2.312512 0-4.164056-.4583287-5.554688-1.375-1.390631-.9166713-2.127603-2.5364467-2.210937-4.859375h5.171875c.083334 1.0312552.33854 1.7734352.765625 2.2265625s1.078121.6796875 1.953125.6796875c.968755 0 1.666665-.2734348 2.09375-.8203125s.640625-1.4244731.640625-2.6328125v-2.515625c-.447919.5833363-1.046871 1.0442691-1.796875 1.3828125s-1.57812.5078125-2.484375.5078125c-1.291673 0-2.471349-.3385383-3.539063-1.015625-1.067713-.6770867-1.916663-1.664056-2.546874-2.9609375-.630212-1.2968815-.945313-2.8307203-.945313-4.6015625s.315101-3.2968686.945313-4.578125c.630211-1.2812564 1.484369-2.255205 2.5625-2.921875 1.07813-.66667 2.27343-1 3.585937-1 .979172 0 1.848955.19010227 2.609375.5703125s1.343748.9036425 1.75 1.5703125v-1.828125zm-8.09375 12.84375c1.041672 0 1.874997-.3854128 2.5-1.15625s.9375-1.8906177.9375-3.359375c0-1.4583406-.312497-2.5807252-.9375-3.3671875s-1.458328-1.1796875-2.5-1.1796875c-.677087 0-1.273435.1718733-1.789062.515625-.515628.3437517-.91927.8567674-1.210938 1.5390625s-.4375 1.5130159-.4375 2.4921875.145832 1.8072883.4375 2.484375.69531 1.1848941 1.210938 1.5234375c.515627.3385434 1.111975.5078125 1.789062.5078125zm21.234375-13.15625c1.677092 0 2.994787.44009977 3.953125 1.3203125s1.4375 2.1223878 1.4375 3.7265625v12.25h-5.109375v-10.0625c0-1.1041722-.221352-1.8932268-.664063-2.3671875-.44271-.4739607-1.054683-.7109375-1.835937-.7109375-.791671 0-1.424477.2447892-1.898437.734375-.473961.4895858-.716146 1.2812445-.726563 2.375v10.03125h-5.109375v-24h5.109375v8.8125c.541669-.68750344 1.22135-1.2109357 2.039063-1.5703125.817712-.3593768 1.752598-.5390625 2.804687-.5390625z" fill="#fff"/><path d="m5.421875 39.09375v5.359375h10.375v4.671875h-10.375v8.953125h-5.421875v-23.703125h16.984375v4.71875zm18.5 4.484375c.5416694-.8229208 1.2812453-1.4713518 2.21875-1.9453125s2.0624934-.7161458 3.375-.7265625v4.625c-1.3645902 0-2.4322878.1510402-3.203125.453125s-1.3203109.7760384-1.6484375 1.421875-.4921875 1.5156195-.4921875 2.609375v8.0625h-5.25v-16.984375h5zm14.3125 14.84375c-1.7500088 0-3.2994724-.3541631-4.6484375-1.0625s-2.4010379-1.7265559-3.15625-3.0546875-1.1328125-2.8984284-1.1328125-4.7109375c0-1.8125.3749962-3.3828059 1.125-4.7109375s1.7994724-2.3437465 3.1484375-3.046875 2.903637-1.0546875 4.6640625-1.0546875 3.3177016.3489548 4.671875 1.046875 2.4088504 1.7109309 3.1640625 3.0390625 1.1328125 2.9036367 1.1328125 4.7265625-.3802045 3.3984309-1.140625 4.7265625-1.8177016 2.3437465-3.171875 3.046875-2.9062412 1.0546875-4.65625 1.0546875zm-.0625-4.125c.7708372 0 1.4479137-.1979147 2.03125-.59375s1.0338526-.9479131 1.3515625-1.65625.4765625-1.526037.4765625-2.453125c0-.9375047-.1588526-1.7656214-.4765625-2.484375s-.7682262-1.2760397-1.3515625-1.671875-1.2604128-.59375-2.03125-.59375c-.7291703 0-1.3749972.1979147-1.9375.59375s-.9973943.9531214-1.3046875 1.671875-.4609375 1.5468703-.4609375 2.484375c0 .927088.1536443 1.7447881.4609375 2.453125s.7421847 1.2604147 1.3046875 1.65625 1.2083297.59375 1.9375.59375zm20.8125-13.515625c1.6770917 0 2.9947869.4400998 3.953125 1.3203125s1.4375 2.1223878 1.4375 3.7265625v12.25h-5.109375v-10.0625c0-1.1041722-.221352-1.8932268-.6640625-2.3671875s-1.0546836-.7109375-1.8359375-.7109375c-.7916706 0-1.4244768.2447892-1.8984375.734375s-.7161458 1.2812445-.7265625 2.375v10.03125h-5.109375v-16.984375h5.109375v1.796875c.5416694-.6875034 1.2213501-1.2109357 2.0390625-1.5703125s1.7525989-.5390625 2.8046875-.5390625zm14.09375 17.609375c-1.6979252 0-2.9713499-.4791619-3.8203125-1.4375s-1.2734375-2.4166569-1.2734375-4.375v-8.078125h-2.703125v-3.40625h2.703125v-5.421875h5.15625v5.421875h3.84375v3.40625h-3.84375v7.09375c0 .6250031.0468745 1.1302064.140625 1.515625s.2786445.6848948.5546875.8984375.6796848.3203125 1.2109375.3203125c.5104192 0 1.1562461-.1093739 1.9375-.328125v3.78125c-1.4687573.406252-2.7708277.609375-3.90625.609375zm30.84375-5.0625v4.75h-17.625v-23.703125h16.984375v4.71875h-11.5625v4.484375h10.65625v4.65625h-10.65625v5.09375zm12.421875-12.546875c1.677092 0 2.994787.4400998 3.953125 1.3203125s1.4375 2.1223878 1.4375 3.7265625v12.25h-5.109375v-10.0625c0-1.1041722-.221352-1.8932268-.664062-2.3671875-.442711-.4739607-1.054684-.7109375-1.835938-.7109375-.791671 0-1.424477.2447892-1.898438.734375-.47396.4895858-.716145 1.2812445-.726562 2.375v10.03125h-5.109375v-16.984375h5.109375v1.796875c.541669-.6875034 1.22135-1.2109357 2.039062-1.5703125.817713-.3593768 1.752599-.5390625 2.804688-.5390625zm23.28125-6.703125v24h-5.09375v-1.53125c-.416669.593753-.98958 1.0494776-1.71875 1.3671875s-1.531246.4765625-2.40625.4765625c-1.260423 0-2.416661-.3203093-3.46875-.9609375s-1.893226-1.6249934-2.523438-2.953125c-.630211-1.3281316-.945312-2.9661361-.945312-4.9140625 0-1.9583431.315101-3.6015559.945312-4.9296875.630212-1.3281316 1.471349-2.3151009 2.523438-2.9609375s2.208327-.96875 3.46875-.96875c.875004 0 1.67708.1588526 2.40625.4765625s1.302081.7734345 1.71875 1.3671875v-8.46875zm-7.84375 20.03125c.593753 0 1.130206-.1718733 1.609375-.515625s.859374-.8567674 1.140625-1.5390625.421875-1.5130159.421875-2.4921875c0-.9375047-.130207-1.7499966-.390625-2.4375s-.63281-1.216144-1.117188-1.5859375c-.484377-.3697935-1.049475-.5546875-1.695312-.5546875-.937505 0-1.697914.3854128-2.28125 1.15625s-.875 1.9114508-.875 3.421875c0 1.5000075.294268 2.6328087.882812 3.3984375.588545.7656288 1.356767 1.1484375 2.304688 1.1484375z" fill="#97daf7"/></g></svg>